<mxfile host="app.diagrams.net" modified="2024-03-06T18:24:54.337Z" agent="Mozilla/5.0 (Windows NT 10.0; Win64; x64; rv:123.0) Gecko/20100101 Firefox/123.0" etag="5c7I-1DlncHjbuD--F06" version="24.0.2" type="device">
  <diagram name="Page-1" id="n5SsfnI0KDj6-LWVoJg9">
    <mxGraphModel dx="879" dy="461" grid="1" gridSize="10" guides="1" tooltips="1" connect="1" arrows="1" fold="1" page="1" pageScale="1" pageWidth="850" pageHeight="1100" math="0" shadow="0">
      <root>
        <mxCell id="0" />
        <mxCell id="1" parent="0" />
        <mxCell id="QsJPlozxs8i3fiEPIlCS-12" value="&lt;font style=&quot;font-size: 40px;&quot;&gt;DFD Odzyskanie Hasła&lt;br&gt;&lt;/font&gt;" style="text;html=1;align=center;verticalAlign=middle;whiteSpace=wrap;rounded=0;" vertex="1" parent="1">
          <mxGeometry x="193" y="210" width="465" height="30" as="geometry" />
        </mxCell>
        <mxCell id="QsJPlozxs8i3fiEPIlCS-28" style="edgeStyle=orthogonalEdgeStyle;rounded=0;orthogonalLoop=1;jettySize=auto;html=1;entryX=0;entryY=0.5;entryDx=0;entryDy=0;exitX=0.5;exitY=1;exitDx=0;exitDy=0;" edge="1" parent="1" source="QsJPlozxs8i3fiEPIlCS-29" target="QsJPlozxs8i3fiEPIlCS-41">
          <mxGeometry relative="1" as="geometry">
            <Array as="points">
              <mxPoint x="150" y="450" />
            </Array>
            <mxPoint x="193.00000000000003" y="519.84" as="sourcePoint" />
            <mxPoint x="378.04" y="520" as="targetPoint" />
          </mxGeometry>
        </mxCell>
        <mxCell id="QsJPlozxs8i3fiEPIlCS-42" style="edgeStyle=orthogonalEdgeStyle;rounded=0;orthogonalLoop=1;jettySize=auto;html=1;entryX=0;entryY=0.5;entryDx=0;entryDy=0;" edge="1" parent="1" source="QsJPlozxs8i3fiEPIlCS-29" target="QsJPlozxs8i3fiEPIlCS-33">
          <mxGeometry relative="1" as="geometry">
            <Array as="points">
              <mxPoint x="250" y="370" />
              <mxPoint x="250" y="370" />
            </Array>
          </mxGeometry>
        </mxCell>
        <mxCell id="QsJPlozxs8i3fiEPIlCS-29" value="User" style="ellipse;whiteSpace=wrap;html=1;" vertex="1" parent="1">
          <mxGeometry x="90" y="360" width="120" height="80" as="geometry" />
        </mxCell>
        <mxCell id="QsJPlozxs8i3fiEPIlCS-30" style="edgeStyle=orthogonalEdgeStyle;rounded=0;orthogonalLoop=1;jettySize=auto;html=1;entryX=0.5;entryY=0;entryDx=0;entryDy=0;" edge="1" parent="1" source="QsJPlozxs8i3fiEPIlCS-31" target="QsJPlozxs8i3fiEPIlCS-29">
          <mxGeometry relative="1" as="geometry">
            <Array as="points">
              <mxPoint x="710" y="290" />
              <mxPoint x="150" y="290" />
            </Array>
          </mxGeometry>
        </mxCell>
        <mxCell id="QsJPlozxs8i3fiEPIlCS-31" value="Server" style="ellipse;whiteSpace=wrap;html=1;" vertex="1" parent="1">
          <mxGeometry x="650" y="370" width="120" height="80" as="geometry" />
        </mxCell>
        <mxCell id="QsJPlozxs8i3fiEPIlCS-43" style="edgeStyle=orthogonalEdgeStyle;rounded=0;orthogonalLoop=1;jettySize=auto;html=1;entryX=0;entryY=0;entryDx=0;entryDy=0;" edge="1" parent="1" source="QsJPlozxs8i3fiEPIlCS-33" target="QsJPlozxs8i3fiEPIlCS-31">
          <mxGeometry relative="1" as="geometry">
            <Array as="points">
              <mxPoint x="668" y="370" />
            </Array>
          </mxGeometry>
        </mxCell>
        <mxCell id="QsJPlozxs8i3fiEPIlCS-33" value="Tabela users" style="shape=process;whiteSpace=wrap;html=1;backgroundOutline=1;" vertex="1" parent="1">
          <mxGeometry x="375" y="340" width="120" height="60" as="geometry" />
        </mxCell>
        <mxCell id="QsJPlozxs8i3fiEPIlCS-35" value="Nowe hasło (hash)" style="text;html=1;align=center;verticalAlign=middle;whiteSpace=wrap;rounded=0;" vertex="1" parent="1">
          <mxGeometry x="220" y="420" width="110" height="30" as="geometry" />
        </mxCell>
        <mxCell id="QsJPlozxs8i3fiEPIlCS-36" value="Walidacja Danych" style="text;html=1;align=center;verticalAlign=middle;whiteSpace=wrap;rounded=0;" vertex="1" parent="1">
          <mxGeometry x="500" y="340" width="150" height="30" as="geometry" />
        </mxCell>
        <mxCell id="QsJPlozxs8i3fiEPIlCS-37" value="Odzyskanie Hasła / Odmowa" style="text;html=1;align=center;verticalAlign=middle;whiteSpace=wrap;rounded=0;" vertex="1" parent="1">
          <mxGeometry x="342" y="260" width="166" height="30" as="geometry" />
        </mxCell>
        <mxCell id="QsJPlozxs8i3fiEPIlCS-40" value="Email" style="text;html=1;align=center;verticalAlign=middle;whiteSpace=wrap;rounded=0;" vertex="1" parent="1">
          <mxGeometry x="240" y="340" width="60" height="30" as="geometry" />
        </mxCell>
        <mxCell id="QsJPlozxs8i3fiEPIlCS-44" style="edgeStyle=orthogonalEdgeStyle;rounded=0;orthogonalLoop=1;jettySize=auto;html=1;entryX=0;entryY=1;entryDx=0;entryDy=0;" edge="1" parent="1" source="QsJPlozxs8i3fiEPIlCS-41" target="QsJPlozxs8i3fiEPIlCS-31">
          <mxGeometry relative="1" as="geometry">
            <Array as="points">
              <mxPoint x="668" y="450" />
            </Array>
          </mxGeometry>
        </mxCell>
        <mxCell id="QsJPlozxs8i3fiEPIlCS-41" value="Tabela users" style="shape=process;whiteSpace=wrap;html=1;backgroundOutline=1;" vertex="1" parent="1">
          <mxGeometry x="375" y="420" width="120" height="60" as="geometry" />
        </mxCell>
        <mxCell id="QsJPlozxs8i3fiEPIlCS-46" value="Powtarzalność danych&lt;br&gt;(koliduje z starymi hasłami)" style="text;html=1;align=center;verticalAlign=middle;whiteSpace=wrap;rounded=0;" vertex="1" parent="1">
          <mxGeometry x="500" y="420" width="150" height="30" as="geometry" />
        </mxCell>
      </root>
    </mxGraphModel>
  </diagram>
</mxfile>
